<svg width="113" height="30" viewBox="0 0 113 30" fill="none" xmlns="http://www.w3.org/2000/svg">
<g id="anydesk-logo" clip-path="url(#clip0_506_846)">
<path id="Vector" d="M22.9071 13.8592L15.6719 21.0944L17.7337 23.1187L26.9933 13.8592L17.7337 4.59961L15.6719 6.66146L22.9071 13.8592Z" fill="#1E3050"/>
<path id="Vector_2" d="M9.52794 23.1493L0.25 13.8713L9.52794 4.59375L18.8055 13.8713L9.52794 23.1493Z" fill="#1E3050"/>
<path id="Vector_3" d="M40.1124 20.7571L39.1002 17.4956H34.1143L33.1021 20.7571H29.9531L34.8266 6.96146H38.388L43.2614 20.7571H40.1124ZM38.4254 15.0589C37.4882 12.0973 37.0009 10.4104 36.8884 10.0355C36.776 9.6606 36.6635 9.32321 36.626 9.09828C36.4011 9.88553 35.8388 11.8724 34.8641 15.0589H38.4254ZM54.4329 20.7571H51.5838V14.6465C51.5838 13.8968 51.4338 13.3344 51.1714 12.9596C50.909 12.5847 50.4591 12.3972 49.8968 12.3972C49.1096 12.3972 48.5097 12.6597 48.1724 13.1845C47.835 13.7093 47.6475 14.609 47.6475 15.8461V20.7946H44.7984V10.2979H46.9727L47.3476 11.6475H47.4976C47.835 11.1226 48.2473 10.7478 48.8097 10.4853C49.372 10.2229 50.0093 10.1105 50.7215 10.1105C51.9587 10.1105 52.8584 10.4479 53.4957 11.0852C54.133 11.7224 54.4329 12.6971 54.4329 13.9342V20.7571ZM55.595 10.2604H58.744L60.7309 16.1835C60.9183 16.7084 61.0308 17.3082 61.0683 18.0205H61.1432C61.2182 17.3832 61.3307 16.7833 61.5556 16.1835L63.505 10.2604H66.579L62.1179 22.1067C61.7056 23.1938 61.1432 24.0186 60.3935 24.5809C59.6437 25.1432 58.744 25.4056 57.7318 25.4056C57.2445 25.4056 56.7571 25.3681 56.2698 25.2557V22.9689C56.6072 23.0439 56.9821 23.0814 57.3944 23.0814C57.9193 23.0814 58.3316 22.9314 58.7065 22.6315C59.0814 22.3316 59.3813 21.8442 59.6062 21.2444L59.7937 20.7196L55.595 10.2604ZM79.6624 13.7468C79.6624 15.9961 79.0251 17.7205 77.7505 18.9577C76.4759 20.1948 74.6015 20.7571 72.1648 20.7571H68.266V7.03643H72.5771C74.8264 7.03643 76.5509 7.63624 77.788 8.79838C79.0251 9.998 79.6624 11.6475 79.6624 13.7468ZM76.6258 13.8218C76.6258 10.8602 75.3138 9.39819 72.7271 9.39819H71.1901V18.3204H72.4272C75.2388 18.3578 76.6258 16.8583 76.6258 13.8218ZM86.5602 20.9445C84.8732 20.9445 83.5611 20.4947 82.5865 19.5575C81.6493 18.6203 81.1619 17.3082 81.1619 15.5837C81.1619 13.8218 81.6118 12.4722 82.474 11.4975C83.3362 10.5228 84.5733 10.073 86.1103 10.073C87.6099 10.073 88.7345 10.4853 89.5592 11.3476C90.384 12.2098 90.7964 13.3719 90.7964 14.834V16.221H84.011C84.0485 17.0458 84.2734 17.6831 84.7233 18.1329C85.1731 18.5828 85.8104 18.8077 86.6352 18.8077C87.2725 18.8077 87.8723 18.7327 88.4346 18.6203C88.9969 18.4703 89.5967 18.2829 90.1965 17.983V20.1948C89.7092 20.4572 89.1469 20.6446 88.5846 20.7571C88.0597 20.8696 87.3849 20.9445 86.5602 20.9445ZM86.1478 12.0973C85.548 12.0973 85.0607 12.2848 84.7233 12.6597C84.3859 13.0345 84.1984 13.5969 84.1235 14.3091H88.1347C88.1347 13.5969 87.9473 13.072 87.5724 12.6597C87.235 12.2848 86.7476 12.0973 86.1478 12.0973ZM100.506 17.6456C100.506 18.7327 100.131 19.5575 99.3811 20.1198C98.6314 20.6821 97.5067 20.982 96.0072 20.982C95.2574 20.982 94.5827 20.9445 94.0578 20.8321C93.533 20.7196 93.0082 20.5696 92.5583 20.3822V18.0205C93.0831 18.2829 93.6829 18.4703 94.3577 18.6578C95.0325 18.8452 95.5948 18.9202 96.1197 18.9202C97.1693 18.9202 97.6942 18.6203 97.6942 18.0205C97.6942 17.7955 97.6192 17.6081 97.4692 17.4581C97.3193 17.3082 97.0944 17.1582 96.757 16.9708C96.4196 16.7833 95.9697 16.5959 95.4074 16.3335C94.5827 15.9961 94.0203 15.6962 93.6455 15.3963C93.2706 15.0964 93.0082 14.7965 92.8207 14.4216C92.6333 14.0467 92.5583 13.5969 92.5583 13.0345C92.5583 12.0973 92.9332 11.3851 93.6455 10.8602C94.3577 10.3354 95.4074 10.1105 96.7195 10.1105C97.9941 10.1105 99.2312 10.3729 100.393 10.9352L99.5311 12.997C99.0063 12.7721 98.5189 12.5847 98.0691 12.4347C97.6192 12.2848 97.1319 12.2098 96.682 12.2098C95.8198 12.2098 95.4074 12.4347 95.4074 12.8846C95.4074 13.147 95.5574 13.3719 95.8198 13.5594C96.0822 13.7468 96.682 14.0092 97.6192 14.3841C98.4439 14.7215 99.0437 15.0214 99.4186 15.3213C99.7935 15.6212 100.093 15.9586 100.281 16.3335C100.393 16.6709 100.506 17.1207 100.506 17.6456ZM105.042 15.0589L106.279 13.4469L109.203 10.2604H112.427L108.266 14.7965L112.727 20.7571H109.428L106.391 16.5209L105.154 17.4956V20.7571H102.305V6.13672H105.154V12.6597L105.004 15.0589H105.042Z" fill="#1E3050"/>
</g>
<defs>
<clipPath id="clip0_506_846">
<rect width="112.5" height="30" fill="white" transform="translate(0.25)"/>
</clipPath>
</defs>
</svg>
