<svg width="48" height="48" viewBox="0 0 48 48" fill="none" xmlns="http://www.w3.org/2000/svg">
<g id="B/bucket-plastic-add/Paid/Sharp/Standard">
<path id="Vector" d="M33.5999 29.6C33.5999 34.902 29.3019 39.2 23.9999 39.2C18.6979 39.2 14.3999 34.902 14.3999 29.6C14.3999 24.298 18.6979 20 23.9999 20C29.3019 20 33.5999 24.298 33.5999 29.6Z" fill="#FAD338" stroke="#1E3050" stroke-width="2.6" stroke-linecap="round" stroke-linejoin="round"/>
<path id="Vector_2" d="M24 24.8008L24 34.4008" stroke="#1E3050" stroke-width="2.6" stroke-linecap="round"/>
<path id="Vector_3" d="M28.7998 29.6006H19.1998" stroke="#1E3050" stroke-width="2.6" stroke-linecap="round"/>
<path id="Vector_4" d="M1.64046 7.89518C1.25781 4.5528 3.64475 1.60059 6.7298 1.60059H41.2704C44.3554 1.60059 46.7424 4.5528 46.3597 7.89518C46.0389 10.6976 43.857 12.8006 41.2704 12.8006H6.7298C4.14315 12.8006 1.96129 10.6976 1.64046 7.89518Z" stroke="#1E3050" stroke-width="2.6"/>
<path id="Vector_5" d="M1.6001 7.2002L4.6256 44.1958C4.72745 45.4413 5.76798 46.4002 7.01761 46.4002H40.9826C42.2322 46.4002 43.2727 45.4413 43.3746 44.1958L46.4001 7.2002" stroke="#1E3050" stroke-width="2.6"/>
</g>
</svg>
