<svg width="48" height="50" viewBox="0 0 48 50" fill="none" xmlns="http://www.w3.org/2000/svg">
<path d="M1.33447 8.20078C1.33447 6.8753 2.40899 5.80078 3.73447 5.80078H43.7345C45.06 5.80078 46.1345 6.8753 46.1345 8.20078V45.8008C46.1345 47.1263 45.06 48.2008 43.7345 48.2008H3.73447C2.40899 48.2008 1.33447 47.1263 1.33447 45.8008V8.20078Z" stroke="#1E3050" stroke-width="2.6" stroke-linecap="round" stroke-linejoin="round"/>
<path d="M14.4004 1.80078V9.80078" stroke="#1E3050" stroke-width="2.6" stroke-linecap="round" stroke-linejoin="round"/>
<path d="M33.6001 1.80078V9.80078" stroke="#1E3050" stroke-width="2.6" stroke-linecap="round" stroke-linejoin="round"/>
<path d="M46.1345 13.0008H1.33447V8.20078C1.33447 6.8753 2.40899 5.80078 3.73447 5.80078H43.7345C45.06 5.80078 46.1345 6.8753 46.1345 8.20078V13.0008Z" fill="#FAD338" stroke="#1E3050" stroke-width="2.6" stroke-linejoin="round"/>
<path d="M19.8858 36.1584C18.6282 36.1584 17.6682 35.7024 17.0058 34.7904C16.3434 33.8688 16.0122 32.568 16.0122 30.888C16.0122 29.1984 16.3434 27.912 17.0058 27.0288C17.6682 26.136 18.6282 25.6896 19.8858 25.6896C21.1434 25.6896 22.1034 26.136 22.7658 27.0288C23.4282 27.912 23.7594 29.1936 23.7594 30.8736C23.7594 32.5632 23.4282 33.8688 22.7658 34.7904C22.1034 35.7024 21.1434 36.1584 19.8858 36.1584ZM19.8858 34.056C20.3466 34.056 20.6874 33.8064 20.9082 33.3072C21.1386 32.7984 21.2538 31.9872 21.2538 30.8736C21.2538 29.7696 21.1386 28.9824 20.9082 28.512C20.6874 28.032 20.3466 27.792 19.8858 27.792C19.425 27.792 19.0794 28.032 18.849 28.512C18.6282 28.9824 18.5178 29.7696 18.5178 30.8736C18.5178 31.9872 18.6282 32.7984 18.849 33.3072C19.0794 33.8064 19.425 34.056 19.8858 34.056ZM25.4962 36V33.8544H27.757V28.7424L26.0434 29.7216L25.0786 27.8064L28.5346 25.848H30.3922V33.8544H32.509V36H25.4962Z" fill="#1E3050"/>
</svg>
