<svg width="48" height="52" viewBox="0 0 48 52" fill="none" xmlns="http://www.w3.org/2000/svg">
<g id="Brand Logos">
<path id="Vector" d="M24 26C24 23.8783 24.8429 21.8434 26.3431 20.3431C27.8434 18.8429 29.8783 18 32 18C34.1217 18 36.1566 18.8429 37.6569 20.3431C39.1571 21.8434 40 23.8783 40 26C40 28.1217 39.1571 30.1566 37.6569 31.6569C36.1566 33.1571 34.1217 34 32 34C29.8783 34 27.8434 33.1571 26.3431 31.6569C24.8429 30.1566 24 28.1217 24 26V26Z" stroke="#1E3050" stroke-width="2.6"/>
<path id="Vector_2" d="M8 42C8 39.8783 8.84285 37.8434 10.3431 36.3431C11.8434 34.8429 13.8783 34 16 34H24V42C24 44.1217 23.1571 46.1566 21.6569 47.6569C20.1566 49.1571 18.1217 50 16 50C13.8783 50 11.8434 49.1571 10.3431 47.6569C8.84285 46.1566 8 44.1217 8 42V42Z" stroke="#1E3050" stroke-width="2.6"/>
<path id="Vector_3" d="M24 2V18H32C34.1217 18 36.1566 17.1571 37.6569 15.6569C39.1571 14.1566 40 12.1217 40 10C40 7.87827 39.1571 5.84344 37.6569 4.34315C36.1566 2.84285 34.1217 2 32 2L24 2Z" stroke="#1E3050" stroke-width="2.6"/>
<path id="Vector_4" d="M8 10C8 12.1217 8.84285 14.1566 10.3431 15.6569C11.8434 17.1571 13.8783 18 16 18H24V2H16C13.8783 2 11.8434 2.84285 10.3431 4.34315C8.84285 5.84344 8 7.87827 8 10H8Z" stroke="#1E3050" stroke-width="2.6"/>
<path id="Vector_5" d="M8 26C8 28.1217 8.84285 30.1566 10.3431 31.6569C11.8434 33.1571 13.8783 34 16 34H24V18H16C13.8783 18 11.8434 18.8429 10.3431 20.3431C8.84285 21.8434 8 23.8783 8 26H8Z" stroke="#1E3050" stroke-width="2.6"/>
</g>
</svg>
