<svg width="33" height="32" viewBox="0 0 33 32" fill="none" xmlns="http://www.w3.org/2000/svg">
<g id="I">
<path id="Vector" fill-rule="evenodd" clip-rule="evenodd" d="M3.8335 16.0002C3.8335 9.00456 9.50456 3.3335 16.5002 3.3335C23.4958 3.3335 29.1668 9.00456 29.1668 16.0002C29.1668 22.9958 23.4958 28.6668 16.5002 28.6668C9.50456 28.6668 3.8335 22.9958 3.8335 16.0002ZM14.5002 10.0002C14.5002 9.26378 15.0971 8.66683 15.8335 8.66683C16.5699 8.66683 17.1668 9.26378 17.1668 10.0002C17.1668 10.7365 16.5699 11.3335 15.8335 11.3335C15.0971 11.3335 14.5002 10.7365 14.5002 10.0002ZM12.8335 14.6668C12.8335 14.1145 13.2812 13.6668 13.8335 13.6668H16.5002C17.0524 13.6668 17.5002 14.1145 17.5002 14.6668V21.6668H20.5002C21.0524 21.6668 21.5002 22.1145 21.5002 22.6668C21.5002 23.2191 21.0524 23.6668 20.5002 23.6668H12.5002C11.9479 23.6668 11.5002 23.2191 11.5002 22.6668C11.5002 22.1145 11.9479 21.6668 12.5002 21.6668H15.5002V15.6668H13.8335C13.2812 15.6668 12.8335 15.2191 12.8335 14.6668Z" fill="#0074FF"/>
</g>
</svg>
