<svg width="87" height="30" viewBox="0 0 87 30" fill="none" xmlns="http://www.w3.org/2000/svg">
<g id="invisionapp-ar21 2">
<g id="Group 37038">
<g id="g6">
<path id="path4" d="M41.7897 22.4123H44.3621V11.2077H41.7897V22.4123ZM51.1742 15.7933C49.8626 15.3662 48.6425 15.0307 48.6425 14.2173V14.1766C48.6425 13.5157 49.2119 13.048 50.2185 13.048C50.7065 13.048 51.2454 13.1599 51.8148 13.3531C51.8148 13.3531 51.8249 13.3531 51.8351 13.3632C51.8859 13.3836 51.9368 13.4039 51.9774 13.4141C52.3841 13.5462 53.4822 13.7191 54.4075 12.2753C53.2077 11.5026 51.6826 11.0145 50.2795 11.0145C48.0528 11.0145 46.2837 12.3058 46.2837 14.4308V14.4715C46.2837 16.6168 48.1342 17.298 49.7915 17.7657C51.103 18.1724 52.2926 18.4673 52.2926 19.3315V19.3722C52.2926 20.1144 51.6521 20.5821 50.554 20.5821C49.822 20.5821 49.0187 20.3889 48.2155 20.0128C47.9817 19.9111 46.7819 19.5044 45.7652 20.9685C47.1581 22.0564 48.9171 22.6258 50.493 22.6258C52.8315 22.6258 54.6515 21.4565 54.6515 19.0977V19.0672C54.6515 17.0439 52.8112 16.3016 51.1742 15.7933ZM34.7844 19.4434L31.7646 11.2077H29.0093L33.6151 22.5038H35.9333L40.5188 11.2077H37.8244L34.7844 19.4434ZM66.588 10.9739C63.1514 10.9739 60.5994 13.6276 60.5994 16.8507C60.5994 20.0534 63.1209 22.6665 66.5473 22.6665C70.0043 22.6665 72.5563 20.0128 72.5563 16.81C72.5563 13.5869 70.0246 10.9739 66.588 10.9739ZM66.588 20.4398C64.5952 20.4398 63.1718 18.8028 63.1718 16.81C63.1718 14.8375 64.4834 13.2209 66.5473 13.2209C68.5605 13.2209 69.9839 14.8578 69.9839 16.8507C69.9839 18.8333 68.6622 20.4398 66.588 20.4398ZM80.1717 10.9739C78.433 10.9739 77.3858 11.8889 76.6639 12.9464V11.2077H74.0915V22.4224H76.6639V16.0983C76.6639 14.3596 77.701 13.3124 79.1956 13.3124C80.7207 13.3124 81.5951 14.3088 81.5951 16.0474V22.4123H84.1674V15.2747C84.1674 12.6718 82.7033 10.9739 80.1717 10.9739ZM56.3494 22.4123H58.9218V11.2077H56.3494V22.4123Z" fill="#1E3050"/>
</g>
<g id="Group 37041">
<path id="Subtract" fill-rule="evenodd" clip-rule="evenodd" d="M6.52913 1.5791H28.5111C29.8532 1.5791 30.9411 2.66702 30.9309 4.00913V25.9912C30.9309 27.3333 29.843 28.4212 28.5009 28.4212H6.52913C5.18703 28.4212 4.09912 27.3333 4.09912 25.981V4.00913C4.09912 2.66702 5.18703 1.5791 6.52913 1.5791ZM14.7038 8.41154C14.7038 9.32662 13.9616 10.0282 13.0669 10.0282C12.1823 10.0282 11.4299 9.32662 11.4299 8.41154C11.4299 7.49648 12.1721 6.79492 13.0669 6.79492C13.9514 6.79492 14.7038 7.49648 14.7038 8.41154ZM9.52862 19.8906C9.52862 19.5348 9.57946 19.0874 9.67096 18.6807L10.891 13.658H8.98975L9.56929 11.5228H14.1548L12.345 18.701C12.223 19.1687 12.1721 19.5449 12.1721 19.8093C12.1721 20.2668 12.3958 20.399 12.7517 20.4803C12.9652 20.521 14.6733 20.4905 15.6087 18.4163L16.7983 13.658H14.8665L15.446 11.5228H19.574L19.0453 13.9426C19.7672 12.5904 21.211 11.3093 22.6344 11.3093C24.1595 11.3093 25.4101 12.387 25.4101 14.4612C25.4101 14.9899 25.3389 15.5694 25.1457 16.2202L24.373 18.9959C24.3019 19.2907 24.251 19.5348 24.251 19.7483C24.251 20.2261 24.4442 20.4702 24.8102 20.4702C25.1763 20.4702 25.6338 20.2058 26.1625 18.7315L27.2199 19.1382C26.5895 21.3344 25.4609 22.2495 24.0375 22.2495C22.37 22.2495 21.577 21.2632 21.577 19.9109C21.577 19.5246 21.6278 19.1077 21.7498 18.701L22.5429 15.8541C22.6446 15.5491 22.6649 15.2543 22.6649 14.9899C22.6649 14.0748 22.1159 13.5156 21.2211 13.5156C20.0824 13.5156 19.3402 14.329 18.9538 15.8948L17.4084 22.0868H14.7038L15.1919 20.1448C14.3988 21.4564 13.3007 22.2596 11.9383 22.2596C10.3013 22.2596 9.52862 21.3141 9.52862 19.8906Z" fill="#1E3050"/>
</g>
</g>
</g>
</svg>
