<svg width="136" height="30" viewBox="0 0 136 30" fill="none" xmlns="http://www.w3.org/2000/svg">
<g id="Medium 2">
<g id="Group">
<path id="Vector" d="M26.1874 15.0969C26.1874 20.0565 22.1955 24.0969 17.2358 24.0969C12.2761 24.0969 8.28418 20.0565 8.28418 15.0969C8.28418 10.1372 12.2761 6.09687 17.2358 6.09687C22.1955 6.09687 26.1874 10.1372 26.1874 15.0969ZM36.01 15.0969C36.01 19.7662 34.0019 23.5646 31.5342 23.5646C29.0664 23.5646 27.0584 19.7662 27.0584 15.0969C27.0584 10.4275 29.0664 6.62913 31.5342 6.62913C34.0019 6.62913 36.01 10.4275 36.01 15.0969ZM40.0261 15.0969C40.0261 19.2824 39.3245 22.6936 38.4535 22.6936C37.5826 22.6936 36.881 19.2824 36.881 15.0969C36.881 10.9114 37.5826 7.5001 38.4535 7.5001C39.3245 7.5001 40.0261 10.9114 40.0261 15.0969ZM64.6793 6.87106H64.7035V6.67752H59.6229L54.9051 17.7824L50.1874 6.67752H44.7197V6.87106H44.7439C45.6632 7.0888 46.1471 7.40332 46.1471 8.51622V21.7017C46.1471 22.8388 45.6632 23.1291 44.7439 23.3469H44.7197V23.5404H48.4455V23.3469H48.4213C47.5019 23.1291 47.0181 22.8146 47.0181 21.7017V9.26623L53.0906 23.5404H53.4293L59.6713 8.87913V22.0162C59.5987 22.9114 59.1148 23.1775 58.2922 23.3711H58.2681V23.5646H64.7519V23.3711H64.7277C63.881 23.1775 63.3971 22.9114 63.3245 22.0162V8.49203C63.3003 7.40332 63.76 7.0888 64.6793 6.87106ZM67.6551 15.6049C67.7519 13.234 68.6229 11.5162 70.0503 11.492C70.4858 11.492 70.8487 11.6372 71.139 11.9275C71.7439 12.5082 72.0342 13.7662 71.9858 15.6049H67.6551ZM67.5826 16.2824H75.1793V16.2582C75.1551 14.4436 74.6229 13.0404 73.631 12.0727C72.76 11.2259 71.4535 10.7662 70.0987 10.7662H70.0745C69.3729 10.7662 68.5019 10.9356 67.8971 11.2501C67.1955 11.5646 66.5664 12.0727 66.0584 12.7017C65.2358 13.7178 64.7277 15.1211 64.6068 16.6694C64.6068 16.7178 64.6068 16.7662 64.6068 16.8146C64.6068 16.863 64.6068 16.9114 64.6068 16.9598C64.6068 17.1775 64.5826 17.3953 64.6068 17.613C64.6793 21.1453 66.5906 23.9759 69.9777 23.9759C72.9535 23.9759 74.6955 21.7985 75.1068 18.8711L74.889 18.7985C74.139 20.3711 72.76 21.3146 71.2116 21.1936C69.0584 21.0243 67.4374 18.8711 67.5826 16.2824ZM83.7439 21.0727C83.5019 21.6533 82.9697 21.992 82.2681 21.992C81.5664 21.992 80.9374 21.5082 80.4777 20.6372C79.9939 19.6936 79.7277 18.3872 79.7277 16.8388C79.7277 13.5969 80.7439 11.492 82.2922 11.492C82.9455 11.492 83.4535 11.8065 83.7197 12.3872V21.0727H83.7439ZM88.8003 23.3953C87.881 23.1775 87.3971 22.8388 87.3971 21.6533V5.90332L81.76 7.57268V7.76623H81.7842C82.5584 7.69365 83.0906 7.81461 83.4051 8.10493C83.6471 8.32268 83.7681 8.66139 83.7681 9.14526V11.2985C83.2116 10.9356 82.5584 10.7662 81.76 10.7662C80.139 10.7662 78.639 11.4436 77.5745 12.7017C76.4616 14.0082 75.8568 15.7743 75.8568 17.8307C75.8568 21.5082 77.6713 23.9759 80.3568 23.9759C81.9293 23.9759 83.1874 23.1049 83.7681 21.6533V23.613H88.8245V23.4195L88.8003 23.3953ZM93.6148 8.03235C93.6148 6.89526 92.7439 6.02429 91.6068 6.02429C90.4697 6.02429 89.5745 6.91945 89.5745 8.03235C89.5745 9.16945 90.4697 10.0404 91.6068 10.0404C92.768 10.0646 93.6148 9.19364 93.6148 8.03235ZM94.9455 23.3953C94.0261 23.1775 93.5422 22.8388 93.5422 21.6533V10.7904L88.4858 12.242V12.4356H88.51C89.5987 12.5324 89.9132 12.9195 89.9132 14.1775V23.5646H94.9697V23.3711L94.9455 23.3953ZM107.913 23.3953C106.994 23.1775 106.51 22.8388 106.51 21.6533V10.7904L101.695 12.1936V12.3872H101.72C102.615 12.484 102.881 12.8711 102.881 14.1533V21.0485C102.591 21.6291 102.034 21.992 101.333 22.0162C100.244 22.0162 99.639 21.2662 99.639 19.9356V10.8146L94.5826 12.2662V12.4598H94.6068C95.6955 12.5565 96.01 12.9436 96.01 14.2017V20.0082C96.01 20.4194 96.0342 20.8065 96.1068 21.2178L96.2035 21.6049C96.639 23.1291 97.7519 23.9517 99.5181 23.9517C101.018 23.9517 102.325 23.0324 102.881 21.5807V23.5888H107.937L107.913 23.3953ZM127.583 23.5888V23.3953H127.558C126.542 23.1533 126.155 22.7178 126.155 21.8227V14.4436C126.155 12.1453 124.873 10.7662 122.695 10.7662C121.123 10.7662 119.792 11.6856 119.284 13.0888C118.873 11.5888 117.712 10.7662 115.97 10.7662C114.445 10.7662 113.26 11.5646 112.752 12.9194V10.7904L107.695 12.1936V12.3872H107.72C108.808 12.484 109.123 12.8711 109.123 14.1291V23.5888H113.841V23.3953H113.816C113.018 23.2017 112.752 22.863 112.752 21.9678V13.5001C112.97 12.992 113.381 12.4114 114.228 12.4114C115.268 12.4114 115.825 13.1372 115.825 14.5646V23.5646H120.542V23.3711H120.518C119.72 23.1775 119.454 22.8388 119.454 21.9436V14.4195C119.454 14.1291 119.429 13.863 119.381 13.5727C119.599 13.0404 120.058 12.3872 120.929 12.3872C121.994 12.3872 122.526 13.0888 122.526 14.5404V23.5404H127.583V23.5888Z" fill="#1E3050"/>
</g>
</g>
</svg>
