<svg width="80" height="30" viewBox="0 0 80 30" fill="none" xmlns="http://www.w3.org/2000/svg">
<g id="Notion 2">
<path id="Vector" d="M37.1266 20.1947V12.9325H37.2547L42.4864 20.1947H44.1327V9.53006H42.3035V16.774H42.1754L36.9437 9.53006H35.2974V20.1947H37.1266ZM49.3096 20.3593C51.7242 20.3593 53.2059 18.7862 53.2059 16.152C53.2059 13.5362 51.7242 11.9447 49.3096 11.9447C46.9132 11.9447 45.4132 13.5362 45.4132 16.152C45.4315 18.7862 46.8949 20.3593 49.3096 20.3593ZM49.3096 18.8227C48.0291 18.8227 47.2974 17.8532 47.2974 16.152C47.2974 14.4691 48.0291 13.4813 49.3096 13.4813C50.59 13.4813 51.3217 14.4691 51.3217 16.152C51.3217 17.8532 50.59 18.8227 49.3096 18.8227ZM54.8705 10.1337V12.1642H53.59V13.6276H54.8705V18.0362C54.8705 19.6093 55.6022 20.2313 57.4681 20.2313C57.8157 20.2313 58.1632 20.1947 58.4376 20.1398V18.713C58.2181 18.7313 58.0717 18.7496 57.8157 18.7496C57.0474 18.7496 56.6998 18.402 56.6998 17.5971V13.6276H58.4376V12.1642H56.6998V10.1337H54.8705ZM59.5352 20.1947H61.3644V12.1093H59.5352V20.1947ZM60.4498 10.774C61.0535 10.774 61.5474 10.2801 61.5474 9.6764C61.5474 9.05445 61.0535 8.56055 60.4498 8.56055C59.8461 8.56055 59.3522 9.05445 59.3522 9.6764C59.3522 10.2801 59.8461 10.774 60.4498 10.774ZM66.3766 20.3593C68.7913 20.3593 70.273 18.7862 70.273 16.152C70.273 13.5362 68.7913 11.9447 66.3766 11.9447C63.9803 11.9447 62.4803 13.5362 62.4803 16.152C62.4803 18.7862 63.9437 20.3593 66.3766 20.3593ZM66.3766 18.8227C65.0961 18.8227 64.3644 17.8532 64.3644 16.152C64.3644 14.4691 65.0961 13.4813 66.3766 13.4813C67.6388 13.4813 68.3888 14.4691 68.3888 16.152C68.3705 17.8532 67.6388 18.8227 66.3766 18.8227ZM71.3522 20.1947H73.1815V15.4935C73.1815 14.3044 73.8766 13.5545 74.9559 13.5545C76.0718 13.5545 76.5839 14.1764 76.5839 15.402V20.1947H78.4132V14.963C78.4132 13.024 77.4254 11.9447 75.6327 11.9447C74.4254 11.9447 73.6205 12.4935 73.2364 13.4081H73.1083V12.1093H71.3339C71.3522 12.1093 71.3522 20.1947 71.3522 20.1947Z" fill="#1E3050"/>
<g id="Group">
<path id="Vector_2" fill-rule="evenodd" clip-rule="evenodd" d="M7.27412 6.2377C8.13387 6.93282 8.44485 6.87794 10.0546 6.76818L25.2192 5.85355C25.5485 5.85355 25.2741 5.52428 25.1644 5.4877L22.64 3.67672C22.1644 3.31087 21.5058 2.87184 20.2802 2.9816L5.60948 4.06087C5.07899 4.11574 4.96924 4.39014 5.18875 4.59136L7.27412 6.2377ZM8.18875 9.76818V25.7194C8.18875 26.5792 8.60948 26.8901 9.579 26.8353L26.2436 25.8657C27.2131 25.8109 27.3229 25.2255 27.3229 24.5304V8.68892C27.3229 7.99379 27.0485 7.60965 26.4631 7.66452L9.04851 8.68892C8.40826 8.74379 8.18875 9.07306 8.18875 9.76818ZM24.6339 10.6279C24.7436 11.1036 24.6339 11.5975 24.1583 11.6523L23.3534 11.817V23.5975C22.6583 23.9633 22.018 24.1828 21.4692 24.1828C20.6095 24.1828 20.39 23.9084 19.7497 23.1035L14.4997 14.8535V22.8292L16.1644 23.195C16.1644 23.195 16.1644 24.1645 14.829 24.1645L11.1339 24.384C11.0241 24.1645 11.1339 23.634 11.4997 23.5243L12.4692 23.2499V12.7133L11.1339 12.6035C11.0241 12.1279 11.2985 11.4328 12.0485 11.3779L16.018 11.1035L21.4875 19.445V12.0731L20.0973 11.9084C19.9875 11.3231 20.4266 10.884 20.957 10.8292L24.6339 10.6279ZM4.38387 2.59745L19.6583 1.4816C21.5241 1.31696 22.018 1.42672 23.1888 2.28648L28.0546 5.70721C28.8595 6.29257 29.1339 6.45721 29.1339 7.09745V25.884C29.1339 27.0548 28.7131 27.7499 27.2131 27.8596L9.48753 28.9389C8.35339 28.9938 7.8229 28.8292 7.23753 28.0792L3.63387 23.4145C2.99363 22.5548 2.71924 21.9145 2.71924 21.1645V4.4633C2.71924 3.49379 3.15826 2.70721 4.38387 2.59745Z" fill="#1E3050"/>
</g>
</g>
</svg>
