<svg width="48" height="48" viewBox="0 0 48 48" fill="none" xmlns="http://www.w3.org/2000/svg">
<g id="P/pen-to-square/Paid/Classic/Standard">
<path id="Vector" d="M24.0001 1.60059H4.0001C2.67461 1.60059 1.6001 2.6751 1.6001 4.00059V44.0006C1.6001 45.3261 2.67461 46.4006 4.0001 46.4006H44.0001C45.3256 46.4006 46.4001 45.3261 46.4001 44.0006V24.0006" stroke="#1E3050" stroke-width="2.6" stroke-linecap="round" stroke-linejoin="round"/>
<path id="Vector 1225" d="M44.7033 8.70353L39.2974 3.29764C38.3602 2.36038 36.8406 2.36038 35.9033 3.29764L14.0004 25.2006L12.4004 35.6006L22.8004 34.0006L44.7033 12.0976C45.6406 11.1604 45.6406 9.64079 44.7033 8.70353Z" stroke="#1E3050" stroke-width="2.6" stroke-linejoin="round"/>
<path id="Vector 1226" d="M44.7031 8.70353L39.2973 3.29764C38.36 2.36038 36.8404 2.36038 35.9031 3.29764L32.8973 6.30353C31.96 7.24079 31.96 8.76038 32.8973 9.69764L38.3031 15.1035C39.2404 16.0408 40.76 16.0408 41.6973 15.1035L44.7031 12.0976C45.6404 11.1604 45.6404 9.64079 44.7031 8.70353Z" fill="#FAD338" stroke="#1E3050" stroke-width="2.6" stroke-linejoin="round"/>
</g>
</svg>
