<svg width="48" height="48" viewBox="0 0 48 48" fill="none" xmlns="http://www.w3.org/2000/svg">
<g id="Icon">
<g id="Quater circle">
<mask id="path-1-inside-1_506_602" fill="white">
<path d="M40.9706 7.02943C43.9495 10.0084 46.0918 13.719 47.1822 17.7883C48.2726 21.8577 48.2726 26.1423 47.1822 30.2116L24 24L40.9706 7.02943Z"/>
</mask>
<path d="M40.9706 7.02943C43.9495 10.0084 46.0918 13.719 47.1822 17.7883C48.2726 21.8577 48.2726 26.1423 47.1822 30.2116L24 24L40.9706 7.02943Z" fill="#FAD338" stroke="white" stroke-width="5.2" mask="url(#path-1-inside-1_506_602)"/>
</g>
<g id="Quater circle_2">
<mask id="path-2-inside-2_506_602" fill="white">
<path d="M40.9706 7.02943C44.7064 10.7652 47.1051 15.6293 47.7947 20.8674C48.4843 26.1054 47.4262 31.4246 44.7846 36L24 24L40.9706 7.02943Z"/>
</mask>
<path d="M40.9706 7.02943C44.7064 10.7652 47.1051 15.6293 47.7947 20.8674C48.4843 26.1054 47.4262 31.4246 44.7846 36L24 24L40.9706 7.02943Z" fill="white" stroke="#1E3050" stroke-width="5.2" mask="url(#path-2-inside-2_506_602)"/>
</g>
<g id="Quater circle_3">
<mask id="path-3-inside-3_506_602" fill="white">
<path d="M30.2117 47.1822C25.1085 48.5496 19.6967 48.1949 14.8156 46.1731C9.93454 44.1513 5.85701 40.5754 3.21539 36L24 24L30.2117 47.1822Z"/>
</mask>
<path d="M30.2117 47.1822C25.1085 48.5496 19.6967 48.1949 14.8156 46.1731C9.93454 44.1513 5.85701 40.5754 3.21539 36L24 24L30.2117 47.1822Z" stroke="#1E3050" stroke-width="5.2" mask="url(#path-3-inside-3_506_602)"/>
</g>
<g id="Quater circle_4">
<mask id="path-4-inside-4_506_602" fill="white">
<path d="M0.81778 17.7883C2.18518 12.6851 5.19826 8.17574 9.38972 4.95952C13.5812 1.7433 18.7168 2.45624e-06 24 0L24 24L0.81778 17.7883Z"/>
</mask>
<path d="M0.81778 17.7883C2.18518 12.6851 5.19826 8.17574 9.38972 4.95952C13.5812 1.7433 18.7168 2.45624e-06 24 0L24 24L0.81778 17.7883Z" stroke="#1E3050" stroke-width="5.2" mask="url(#path-4-inside-4_506_602)"/>
</g>
<g id="Quater circle_5">
<mask id="path-5-inside-5_506_602" fill="white">
<path d="M17.7883 0.81778C22.8915 -0.549617 28.3033 -0.19491 33.1844 1.82689C38.0655 3.84869 42.143 7.42459 44.7846 12L24 24L17.7883 0.81778Z"/>
</mask>
<path d="M17.7883 0.81778C22.8915 -0.549617 28.3033 -0.19491 33.1844 1.82689C38.0655 3.84869 42.143 7.42459 44.7846 12L24 24L17.7883 0.81778Z" fill="white" stroke="#1E3050" stroke-width="5.2" mask="url(#path-5-inside-5_506_602)"/>
</g>
<rect id="Shape" x="1.3" y="1.3" width="45.4" height="45.4" rx="22.7" stroke="#1E3050" stroke-width="2.6"/>
<rect id="Shape_2" x="7.6999" y="7.70039" width="32.6" height="32.6" rx="16.3" fill="white" stroke="#1E3050" stroke-width="2.6"/>
<path id="Ellipse 304" d="M30.4002 35.0855C28.2078 36.3513 25.6892 36.9386 23.163 36.773C20.6369 36.6074 18.2165 35.6964 16.208 34.1553C14.1996 32.6142 12.6932 30.5121 11.8795 28.1148C11.0657 25.7176 10.9811 23.1328 11.6363 20.6875L24.0002 24.0004L30.4002 35.0855Z" fill="#FAD338"/>
<g id="Group 81">
<path id="Rectangle" d="M29.7228 15.8963C30.549 15.0702 31.8885 15.0702 32.7147 15.8963C33.5409 16.7225 33.5409 18.0621 32.7147 18.8883L29.7228 21.8802L26.7309 18.8883L29.7228 15.8963Z" fill="white" stroke="#1E3050" stroke-width="2.6"/>
<path id="Line (Stroke)" d="M28.2634 25.25C29.1842 26.1708 30.677 26.1708 31.5978 25.25C32.5186 24.3292 32.5186 22.8364 31.5978 21.9156L26.6955 17.0133C25.7748 16.0925 24.2819 16.0925 23.3611 17.0133C22.4403 17.9341 22.4403 19.427 23.3611 20.3477L28.2634 25.25Z" fill="white" stroke="#1E3050" stroke-width="2.6"/>
<path id="Rectangle Copy" d="M24.4126 21.207L27.4045 24.1989L21.2879 30.3155C20.4617 31.1417 19.1222 31.1417 18.296 30.3155C17.4698 29.4893 17.4698 28.1498 18.296 27.3236L24.4126 21.207Z" fill="white" stroke="#1E3050" stroke-width="2.6"/>
</g>
</g>
</svg>
