<svg width="96" height="24" viewBox="0 0 96 24" fill="none" xmlns="http://www.w3.org/2000/svg">
<g id="slack-2" clip-path="url(#clip0_506_830)">
<path id="Vector" fill-rule="evenodd" clip-rule="evenodd" d="M31.0562 18.8973L32.2398 16.1467C33.5184 17.1028 35.2218 17.5998 36.9025 17.5998C38.1431 17.5998 38.9284 17.1218 38.9284 16.3971C38.9095 14.3712 31.4962 15.9571 31.4393 10.8771C31.4204 8.29723 33.7119 6.30925 36.9594 6.30925C38.8905 6.30925 40.8178 6.78727 42.1949 7.87611L41.0871 10.6836C39.8276 9.87928 38.2607 9.3064 36.7697 9.3064C35.7568 9.3064 35.089 9.78443 35.089 10.3952C35.108 12.3832 42.5781 11.2944 42.654 16.1467C42.654 18.7835 40.4194 20.6387 37.2098 20.6387C34.8576 20.6349 32.6989 20.081 31.0562 18.8973ZM76.5105 15.1528C75.9186 16.1847 74.8108 16.8903 73.5285 16.8903C71.6353 16.8903 70.1102 15.3614 70.1102 13.4721C70.1102 11.5827 71.6391 10.0538 73.5285 10.0538C74.807 10.0538 75.9186 10.7595 76.5105 11.7914L79.777 9.97792C78.5554 7.80024 76.2032 6.30925 73.5285 6.30925C69.5715 6.30925 66.3619 9.51886 66.3619 13.4759C66.3619 17.4329 69.5715 20.6425 73.5285 20.6425C76.2221 20.6425 78.5554 19.1705 79.777 16.9738L76.5105 15.1528ZM44.2967 0.364258H48.3865V20.3693H44.2967V0.364258ZM81.3818 0.364258V20.3693H85.4716V14.3674L90.3239 20.3693H95.5595L89.3869 13.2406L95.1004 6.58999H90.0925L85.4678 12.1101V0.364258H81.3818Z" fill="#1E3050"/>
<path id="Vector_2" d="M60.5364 15.1909C59.9446 16.1659 58.723 16.8906 57.3458 16.8906C55.4526 16.8906 53.9275 15.3616 53.9275 13.4723C53.9275 11.5829 55.4564 10.054 57.3458 10.054C58.723 10.054 59.9446 10.8166 60.5364 11.8106V15.1909ZM60.5364 6.594V8.21777C59.8687 7.09099 58.207 6.30566 56.4656 6.30566C52.8728 6.30566 50.0464 9.47734 50.0464 13.4533C50.0464 17.4293 52.8728 20.6389 56.4656 20.6389C58.2032 20.6389 59.8649 19.8574 60.5364 18.7268V20.3506H64.6262V6.594H60.5364Z" fill="#1E3050"/>
<g id="Group">
<path id="Vector_3" fill-rule="evenodd" clip-rule="evenodd" d="M5.77582 15.1714C5.77582 16.5675 4.64904 17.6943 3.2529 17.6943C1.85676 17.6943 0.72998 16.5637 0.72998 15.1714C0.72998 13.779 1.85676 12.6484 3.2529 12.6484H5.77582V15.1714ZM7.03539 15.1714C7.03539 13.7752 8.16217 12.6484 9.55831 12.6484C10.9545 12.6484 12.0812 13.7752 12.0812 15.1714V21.4768C12.0812 22.8729 10.9545 23.9997 9.55831 23.9997C8.16217 23.9997 7.03539 22.8729 7.03539 21.4768V15.1714Z" fill="#1E3050"/>
<path id="Vector_4" fill-rule="evenodd" clip-rule="evenodd" d="M9.5597 5.04584C8.16356 5.04584 7.03678 3.91906 7.03678 2.52292C7.03678 1.12678 8.16356 0 9.5597 0C10.9558 0 12.0826 1.12678 12.0826 2.52292V5.04584H9.5597ZM9.5597 6.32438C10.9558 6.32438 12.0826 7.45115 12.0826 8.8473C12.0826 10.2434 10.9558 11.3702 9.5597 11.3702H3.23532C1.83918 11.3702 0.712402 10.2396 0.712402 8.8473C0.712402 7.45495 1.83918 6.32438 3.23532 6.32438H9.5597Z" fill="#1E3050"/>
<path id="Vector_5" fill-rule="evenodd" clip-rule="evenodd" d="M19.6662 8.8473C19.6662 7.45115 20.793 6.32438 22.1892 6.32438C23.5853 6.32438 24.7121 7.45115 24.7121 8.8473C24.7121 10.2434 23.5853 11.3702 22.1892 11.3702H19.6662V8.8473ZM18.4067 8.8473C18.4067 10.2434 17.2799 11.3702 15.8838 11.3702C14.4876 11.3702 13.3608 10.2434 13.3608 8.8473V2.52292C13.3608 1.12678 14.4876 0 15.8838 0C17.2799 0 18.4067 1.12678 18.4067 2.52292V8.8473Z" fill="#1E3050"/>
<path id="Vector_6" fill-rule="evenodd" clip-rule="evenodd" d="M15.8838 18.9538C17.2799 18.9538 18.4067 20.0806 18.4067 21.4768C18.4067 22.8729 17.2799 23.9997 15.8838 23.9997C14.4876 23.9997 13.3608 22.8729 13.3608 21.4768V18.9538H15.8838ZM15.8838 17.6943C14.4876 17.6943 13.3608 16.5675 13.3608 15.1714C13.3608 13.7752 14.4876 12.6484 15.8838 12.6484H22.2081C23.6043 12.6484 24.7311 13.7752 24.7311 15.1714C24.7311 16.5675 23.6043 17.6943 22.2081 17.6943H15.8838Z" fill="#1E3050"/>
</g>
</g>
<defs>
<clipPath id="clip0_506_830">
<rect width="94.8467" height="24" fill="white" transform="translate(0.712402)"/>
</clipPath>
</defs>
</svg>
