<svg width="49" height="30" viewBox="0 0 49 30" fill="none" xmlns="http://www.w3.org/2000/svg">
<g id="Stripe_Logo,_revised_2016 2">
<g id="Group">
<path id="Vector" fill-rule="evenodd" clip-rule="evenodd" d="M48.7304 15.29C48.7304 11.8383 47.0612 9.11475 43.8708 9.11475C40.667 9.11475 38.7285 11.8383 38.7285 15.2631C38.7285 19.3215 41.017 21.3709 44.3016 21.3709C45.9035 21.3709 47.1151 21.0069 48.0304 20.4945V17.7979C47.1151 18.2563 46.0651 18.5395 44.7324 18.5395C43.4266 18.5395 42.2689 18.081 42.1208 16.49H48.7035C48.7035 16.3147 48.7304 15.6136 48.7304 15.29ZM42.0804 14.0091C42.0804 12.4855 43.0093 11.8518 43.8574 11.8518C44.6785 11.8518 45.5535 12.4855 45.5535 14.0091H42.0804Z" fill="#676F7E"/>
<path id="Vector_2" fill-rule="evenodd" clip-rule="evenodd" d="M33.5323 9.11475C32.2131 9.11475 31.365 9.73497 30.8939 10.1664L30.7189 9.33048H27.7573V25.0518L31.1227 24.3372L31.1362 20.5215C31.6208 20.872 32.3342 21.3709 33.5189 21.3709C35.9285 21.3709 38.1227 19.4294 38.1227 15.1552C38.1092 11.2451 35.8881 9.11475 33.5323 9.11475ZM32.7246 18.4046C31.9304 18.4046 31.4592 18.1215 31.1362 17.7709L31.1227 12.7687C31.4727 12.3777 31.9573 12.108 32.7246 12.108C33.9496 12.108 34.7977 13.4833 34.7977 15.2496C34.7977 17.0563 33.9631 18.4046 32.7246 18.4046Z" fill="#676F7E"/>
<path id="Vector_3" fill-rule="evenodd" clip-rule="evenodd" d="M23.127 8.31917L26.5058 7.59108V4.854L23.127 5.56861V8.31917Z" fill="#676F7E"/>
<path id="Vector_4" d="M26.5058 9.34375H23.127V21.1415H26.5058V9.34375Z" fill="#676F7E"/>
<path id="Vector_5" fill-rule="evenodd" clip-rule="evenodd" d="M19.5054 10.3417L19.29 9.34396H16.3823V21.1417H19.7477V13.1462C20.5419 12.108 21.8881 12.2968 22.3054 12.4451V9.34396C21.8746 9.18216 20.2996 8.88553 19.5054 10.3417Z" fill="#676F7E"/>
<path id="Vector_6" fill-rule="evenodd" clip-rule="evenodd" d="M12.7746 6.41797L9.49002 7.11909L9.47656 17.9191C9.47656 19.9146 10.9708 21.3843 12.9631 21.3843C14.0669 21.3843 14.8746 21.182 15.3189 20.9393V18.2022C14.8881 18.3775 12.7612 18.9977 12.7612 17.0022V12.2157H15.3189V9.34381H12.7612L12.7746 6.41797Z" fill="#676F7E"/>
<path id="Vector_7" fill-rule="evenodd" clip-rule="evenodd" d="M3.67481 12.7687C3.67481 12.2428 4.10558 12.0406 4.81904 12.0406C5.84212 12.0406 7.13443 12.3507 8.1575 12.9035V9.73497C7.0402 9.29003 5.93635 9.11475 4.81904 9.11475C2.08635 9.11475 0.269043 10.544 0.269043 12.9305C0.269043 16.6518 5.38443 16.0586 5.38443 17.6631C5.38443 18.2833 4.84597 18.4855 4.09212 18.4855C2.97481 18.4855 1.54789 18.0271 0.41712 17.4069V20.6159C1.66904 21.1552 2.93443 21.3844 4.09212 21.3844C6.89212 21.3844 8.81712 19.9956 8.81712 17.5822C8.80366 13.5642 3.67481 14.2788 3.67481 12.7687Z" fill="#676F7E"/>
</g>
</g>
</svg>
