<svg width="94" height="30" viewBox="0 0 94 30" fill="none" xmlns="http://www.w3.org/2000/svg">
<g clip-path="url(#clip0_506_838)">
<path fill-rule="evenodd" clip-rule="evenodd" d="M26.8091 15C26.8091 21.9036 21.2126 27.5 14.3091 27.5C7.40552 27.5 1.80908 21.9036 1.80908 15C1.80908 8.09644 7.40552 2.5 14.3091 2.5C21.2126 2.5 26.8091 8.09644 26.8091 15ZM6.28955 16.9607V11.0864C6.28997 11.0289 6.30174 10.972 6.32419 10.919C6.34664 10.866 6.37933 10.818 6.42039 10.7777C6.46144 10.7374 6.51005 10.7056 6.56343 10.6841C6.61681 10.6626 6.67391 10.6519 6.73144 10.6525H15.2915C15.9286 10.65 16.5407 10.9005 16.9932 11.349C17.4457 11.7976 17.7016 12.4074 17.7047 13.0445V18.9188C17.7038 19.0345 17.6571 19.1452 17.5748 19.2266C17.4924 19.3079 17.3812 19.3533 17.2654 19.3527H8.70276C8.06563 19.3553 7.45355 19.1047 7.00105 18.6562C6.54854 18.2077 6.29263 17.5978 6.28955 16.9607ZM21.7849 10.7954L18.2498 13.3779V16.6326L21.7849 19.2093C22.0389 19.4004 22.33 19.4639 22.33 18.94V11.0653C22.33 10.6049 22.0918 10.5408 21.7849 10.7954Z" fill="#1E3050"/>
<path fill-rule="evenodd" clip-rule="evenodd" d="M80.3085 12.264C80.541 12.6651 80.6171 13.1215 80.6422 13.6346L80.6752 14.3184V19.1005L80.709 19.7851C80.7764 20.9031 81.6009 21.7298 82.7276 21.8001L83.4086 21.8339V14.3184L83.4423 13.6346C83.4703 13.1272 83.5456 12.6622 83.7817 12.2582C84.0223 11.8438 84.3676 11.5 84.7831 11.2613C85.1986 11.0226 85.6695 10.8974 86.1487 10.8983C86.6278 10.8992 87.0983 11.0261 87.5129 11.2663C87.9275 11.5065 88.2716 11.8516 88.5107 12.2668C88.7432 12.668 88.8157 13.133 88.8436 13.6346L88.8774 14.3163V19.1005L88.9111 19.7851C88.9814 20.9089 89.7995 21.7355 90.9297 21.8001L91.6107 21.8339V13.6346C91.6107 12.1847 91.0349 10.7942 90.0099 9.76881C88.9849 8.7434 87.5946 8.16705 86.1448 8.16648C85.3688 8.16566 84.6015 8.33045 83.8943 8.64985C83.1871 8.96924 82.5562 9.43588 82.0437 10.0186C81.531 9.43611 80.9 8.96958 80.1929 8.65009C79.4857 8.3306 78.7186 8.16549 77.9426 8.16576C76.8074 8.16576 75.7539 8.51021 74.8813 9.10509C74.3489 8.51092 73.1577 8.16576 72.4738 8.16576V21.8339L73.1577 21.8001C74.3015 21.7248 75.1282 20.9204 75.1727 19.7851L75.2093 19.1005V14.3184L75.243 13.6346C75.2717 13.1186 75.3435 12.6651 75.5767 12.2611C75.8175 11.847 76.1627 11.5032 76.5778 11.2642C76.993 11.0252 77.4636 10.8993 77.9426 10.8991C78.422 10.8992 78.893 11.0254 79.3082 11.2649C79.7235 11.5045 80.0685 11.849 80.3085 12.264ZM33.519 21.8008L34.2028 21.8339H44.4537L44.42 21.1521C44.3274 20.0284 43.5316 19.2074 42.4043 19.1342L41.7204 19.1005H35.5706L43.7699 10.8984L43.7361 10.2174C43.683 9.08213 42.8535 8.26192 41.7204 8.19949L41.0365 8.16863L30.7856 8.16576L30.8194 8.84963C30.9091 9.96262 31.7164 10.8008 32.8344 10.8654L33.519 10.8991H39.6688L31.4695 19.1012L31.5032 19.7851C31.5707 20.9117 32.3837 21.7276 33.519 21.8001V21.8008ZM69.7907 10.1664C70.4254 10.801 70.9289 11.5544 71.2724 12.3836C71.6159 13.2128 71.7928 14.1016 71.7928 14.9991C71.7928 15.8966 71.6159 16.7854 71.2724 17.6146C70.9289 18.4438 70.4254 19.1972 69.7907 19.8318C68.5083 21.1131 66.7697 21.8328 64.957 21.8328C63.1442 21.8328 61.4056 21.1131 60.1232 19.8318C57.4545 17.163 57.4545 12.8352 60.1232 10.1664C60.7574 9.53205 61.5102 9.02879 62.3389 8.6854C63.1675 8.342 64.0557 8.16518 64.9526 8.16504C65.8511 8.16442 66.7408 8.34092 67.571 8.68446C68.4011 9.028 69.1554 9.53183 69.7907 10.1671V10.1664ZM67.8568 12.1018C68.6255 12.8711 69.0573 13.9141 69.0573 15.0016C69.0573 16.0891 68.6255 17.1321 67.8568 17.9014C67.0875 18.6701 66.0445 19.1019 64.957 19.1019C63.8694 19.1019 62.8264 18.6701 62.0571 17.9014C61.2884 17.1321 60.8566 16.0891 60.8566 15.0016C60.8566 13.9141 61.2884 12.8711 62.0571 12.1018C62.8264 11.3331 63.8694 10.9013 64.957 10.9013C66.0445 10.9013 67.0875 11.3331 67.8568 12.1018ZM50.6093 8.16504C51.5063 8.16527 52.3945 8.34221 53.2232 8.68573C54.0518 9.02925 54.8046 9.53264 55.4387 10.1671C58.1082 12.8352 58.1082 17.1637 55.4387 19.8318C54.1564 21.1131 52.4178 21.8328 50.605 21.8328C48.7922 21.8328 47.0536 21.1131 45.7712 19.8318C43.1025 17.163 43.1025 12.8352 45.7712 10.1664C46.4054 9.53205 47.1583 9.02879 47.9869 8.6854C48.8155 8.342 49.7037 8.16518 50.6007 8.16504H50.6093ZM53.5048 12.1003C54.2737 12.8697 54.7057 13.9128 54.7057 15.0005C54.7057 16.0882 54.2737 17.1314 53.5048 17.9007C52.7355 18.6694 51.6925 19.1012 50.605 19.1012C49.5175 19.1012 48.4745 18.6694 47.7052 17.9007C46.9365 17.1314 46.5047 16.0884 46.5047 15.0009C46.5047 13.9134 46.9365 12.8703 47.7052 12.1011C48.4745 11.3324 49.5175 10.9006 50.605 10.9006C51.6925 10.9006 52.7355 11.3317 53.5048 12.1003Z" fill="#1E3050"/>
</g>
<defs>
<clipPath id="clip0_506_838">
<rect width="92.5" height="30" fill="white" transform="translate(0.559082)"/>
</clipPath>
</defs>
</svg>
